<svg xmlns="http://www.w3.org/2000/svg" width="24.988" height="20.174" viewBox="0 0 24.988 20.174">
  <g id="Group_27" data-name="Group 27" transform="translate(-349.421 -5426.553)">
    <g id="Subtraction_9" data-name="Subtraction 9" transform="translate(388.877 5435.129) rotate(90)" fill="none">
      <path d="M1.7,39.456h0L-.563,23.471l.505-3.5L1.7,18.658l1.757,1.314.5,3.5Z" stroke="none"/>
      <path d="M 1.699902176856995 32.32338333129883 L 2.951647281646729 23.47250366210938 L 2.52629017829895 20.52444648742676 L 1.700075745582581 19.90657806396484 L 0.8731164932250977 20.52495765686035 L 0.4476583898067474 23.47249984741211 L 1.699902176856995 32.32338333129883 M 1.701089859008789 39.45619964599609 L 1.699109792709351 39.45619964599609 L -0.5625001788139343 23.47109794616699 L -0.05745019018650055 19.97214889526367 L 1.70009982585907 18.65789794921875 L 3.456889867782593 19.9716796875 L 3.96179986000061 23.47109794616699 L 1.701089859008789 39.45619964599609 Z" stroke="none" fill="#fff"/>
    </g>
    <g id="Subtraction_10" data-name="Subtraction 10" transform="matrix(-0.695, 0.719, -0.719, -0.695, 387.997, 5447.392)" fill="none">
      <path d="M1.725,30.247h0L.239,19.75,1.7,18.658l1.505,1.126Z" stroke="none"/>
      <path d="M 1.724405288696289 23.11227416992188 L 2.132082939147949 20.22965049743652 L 1.700073003768921 19.90657997131348 L 1.312070488929749 20.19672012329102 L 1.724405288696289 23.11227416992188 M 1.725395321846008 30.24650001525879 L 1.723415374755859 30.24650001525879 L 0.2390053421258926 19.75046920776367 L 1.700095295906067 18.65789985656738 L 3.205145359039307 19.78342056274414 L 1.725395321846008 30.24650001525879 Z" stroke="none" fill="#fff"/>
    </g>
    <g id="Subtraction_11" data-name="Subtraction 11" transform="matrix(-0.695, -0.719, 0.719, -0.695, 365.197, 5447.851)" fill="none">
      <path d="M1.664,13h0L.2,11.911l1.486-10.5L3.17,11.877,1.665,13Z" stroke="none"/>
      <path d="M 1.664104342460632 11.75455665588379 L 2.096905708312988 11.43092823028564 L 1.689106345176697 8.547442436218262 L 1.276377558708191 11.46463108062744 L 1.664104342460632 11.75455665588379 M 1.664102673530579 13.00321102142334 L 0.2032826244831085 11.9108715057373 L 1.689302563667297 1.407601475715637 L 3.169972658157349 11.8771915435791 L 1.664102673530579 13.00321102142334 Z" stroke="none" fill="#fff"/>
    </g>
  </g>
</svg>
